<svg xmlns="http://www.w3.org/2000/svg" version="1.1" xmlns:xlink="http://www.w3.org/1999/xlink" xmlns:svgjs="http://svgjs.dev/svgjs" width="128" height="128" viewBox="0 0 128 128"><g transform="matrix(0.5508021390374331,0,0,0.5508021390374331,28.554289034888,12.760752631578946)"><svg viewBox="0 0 65 95" data-background-color="#ffffff" preserveAspectRatio="xMidYMid meet" height="187" width="128" xmlns="http://www.w3.org/2000/svg" xmlns:xlink="http://www.w3.org/1999/xlink"><g id="tight-bounds" transform="matrix(1,0,0,1,0.17920333593266946,-0.24049999999999727)"><svg viewBox="0 0 64.64159332813465 95.481" height="95.481" width="64.64159332813465"><g><svg viewBox="0 0 64.64159332813465 95.481" height="95.481" width="64.64159332813465"><g><svg viewBox="0 0 64.64159332813465 95.481" height="95.481" width="64.64159332813465"><g id="textblocktransform"><svg viewBox="0 0 64.64159332813465 95.481" height="95.481" width="64.64159332813465" id="textblock"><g><svg viewBox="0 0 64.64159332813465 95.481" height="95.481" width="64.64159332813465"><g><svg viewBox="0 0 64.64159332813465 95.481" height="95.481" width="64.64159332813465"><g><svg xmlns="http://www.w3.org/2000/svg" xmlns:xlink="http://www.w3.org/1999/xlink" version="1.1" x="0" y="0" viewBox="17.15 0 66.85 98.743" enable-background="new 0 0 100 100" xml:space="preserve" height="95.481" width="64.64159332813465" class="icon-icon-0" data-fill-palette-color="accent" id="icon-0"><path fill-rule="evenodd" clip-rule="evenodd" fill="#87c0cd" d="M17.15 47.28V85.2l31.601 13.543v-37.92L17.15 47.28zM84 45.437L49.653 60.823v37.92L84 83.357V45.437zM61.458 2.445l-33.466 14.83v32.759l9.043 3.747-0.022-22.753c0 0 12.31-5.395 24.445-10.691V2.445zM22.575 15.695L22.56 47.784l4.507 1.865V17.485L22.575 15.695zM22.936 14.311l4.484 1.791 32.759-14.28L55.665 0 22.936 14.311zM38.818 54.525l4.5 1.866V35.543l-4.492-1.791L38.818 54.525zM44.243 56.775l5.41 2.242 28.057-12.52V20.502l-33.467 14.83V56.775zM39.188 32.368l4.484 1.791 32.76-14.28-4.515-1.821L39.188 32.368z" data-fill-palette-color="accent"></path></svg></g></svg></g></svg></g></svg></g></svg></g></svg></g><defs></defs></svg><rect width="64.64159332813465" height="95.481" fill="none" stroke="none" visibility="hidden"></rect></g></svg></g></svg>